<svg xmlns="http://www.w3.org/2000/svg" width="288" height="337" viewBox="0 0 288 337">
<g>
<path d="M 182.50 311.49 C179.75,312.31 177.05,312.93 176.50,312.87 C175.95,312.80 169.88,312.14 163.00,311.39 C146.88,309.63 136.99,307.60 124.01,303.36 C104.51,296.98 82.83,285.15 71.98,274.97 C69.52,272.66 68.18,271.23 69.00,271.79 C69.82,272.35 73.15,273.58 76.38,274.51 C80.53,275.71 81.86,276.48 80.88,277.09 C79.82,277.77 79.97,277.98 81.50,278.00 C82.97,278.02 83.15,278.25 82.17,278.87 C81.19,279.50 81.86,280.51 84.82,282.86 C87.00,284.59 89.05,286.00 89.37,286.00 C89.69,286.00 93.19,287.97 97.15,290.39 C101.72,293.17 105.35,294.71 107.11,294.59 C108.63,294.48 109.65,294.76 109.38,295.20 C109.11,295.64 109.55,296.00 110.36,296.00 C111.17,296.00 111.98,296.34 112.17,296.75 C112.35,297.16 117.22,299.01 123.00,300.85 C128.77,302.69 134.47,304.57 135.66,305.03 C136.85,305.50 142.70,306.60 148.66,307.48 C154.62,308.37 163.14,309.67 167.60,310.37 C174.90,311.52 176.38,311.47 182.60,309.77 C191.08,307.46 207.07,299.90 216.66,293.68 C225.48,287.94 235.22,279.17 234.34,277.75 C233.98,277.17 234.10,276.95 234.61,277.26 C235.11,277.57 236.19,277.30 237.01,276.66 C239.68,274.58 243.93,268.27 243.21,267.46 C242.82,267.03 243.01,266.97 243.64,267.33 C244.59,267.87 253.00,258.22 253.00,256.59 C253.00,256.31 254.14,254.41 255.53,252.35 C256.93,250.30 257.83,248.01 257.55,247.26 C257.26,246.51 257.36,246.10 257.76,246.35 C258.44,246.77 261.36,241.17 265.45,231.60 C268.17,225.23 272.02,207.40 273.21,195.62 C274.42,183.79 273.23,165.01 270.57,153.84 C268.62,145.67 265.00,135.12 263.91,134.44 C263.39,134.12 263.23,133.44 263.54,132.93 C263.86,132.42 263.57,132.00 262.89,132.00 C262.22,132.00 261.93,131.74 262.24,131.43 C263.07,130.60 255.65,116.45 251.00,110.00 C245.80,102.79 231.72,87.75 227.42,84.81 C225.56,83.54 223.80,81.89 223.51,81.15 C222.64,78.91 232.22,87.42 241.29,96.95 C245.98,101.88 251.55,108.67 253.66,112.03 C255.77,115.40 258.58,119.80 259.89,121.82 C263.82,127.87 268.67,140.14 271.68,151.67 C274.33,161.85 274.50,163.73 274.50,183.00 C274.50,199.25 274.12,205.25 272.65,211.93 C271.63,216.56 270.44,221.06 270.00,221.93 C269.56,222.79 268.62,225.52 267.93,228.00 C266.58,232.78 262.84,241.85 260.51,246.00 C259.73,247.38 258.13,250.25 256.95,252.39 C253.75,258.21 245.22,269.92 240.59,274.85 C234.33,281.50 219.88,293.55 214.65,296.47 C212.07,297.91 208.32,300.20 206.31,301.57 C204.29,302.93 201.49,304.33 200.07,304.66 C198.66,305.00 196.38,305.83 195.00,306.51 C190.01,309.00 187.41,310.03 182.50,311.49 ZM 77.15 207.84 C74.76,209.11 70.82,211.97 68.40,214.20 C65.98,216.43 64.00,217.89 64.00,217.44 C64.00,215.85 68.52,210.01 69.75,210.01 C70.44,210.00 70.89,209.44 70.75,208.75 C70.61,208.06 71.28,207.56 72.24,207.64 C73.23,207.72 73.70,207.32 73.33,206.72 C72.91,206.04 73.32,205.91 74.48,206.35 C76.00,206.94 76.09,206.81 75.02,205.52 C73.60,203.82 75.01,203.41 76.65,205.05 C77.39,205.79 79.12,205.75 82.41,204.92 C88.68,203.34 97.42,204.25 103.25,207.09 C105.86,208.36 108.00,209.69 108.00,210.05 C108.00,210.40 105.64,209.53 102.75,208.10 C95.53,204.52 83.64,204.40 77.15,207.84 Z" fill="rgb(14,58,75)"/>
<path d="M 77.15 207.84 C83.64,204.40 95.53,204.52 102.75,208.10 C105.64,209.53 108.00,210.40 108.00,210.05 C108.00,209.69 105.86,208.36 103.25,207.09 C97.42,204.25 88.68,203.34 82.41,204.92 C79.12,205.75 77.39,205.79 76.65,205.05 C75.01,203.41 73.60,203.82 75.02,205.52 C76.09,206.81 76.00,206.94 74.48,206.35 C73.32,205.91 72.91,206.04 73.33,206.72 C73.70,207.32 73.23,207.72 72.24,207.64 C71.28,207.56 70.61,208.06 70.75,208.75 C70.89,209.44 70.44,210.00 69.75,210.01 C69.08,210.01 67.43,211.74 66.07,213.58 C68.49,209.99 72.49,204.99 75.19,202.46 C84.21,193.99 85.21,193.54 95.06,193.46 C99.98,193.42 104.00,193.66 104.00,193.99 C104.00,194.71 111.16,197.50 112.25,197.20 C112.66,197.09 113.00,197.48 113.00,198.06 C113.00,198.64 113.45,198.84 114.00,198.50 C114.55,198.16 115.00,198.36 115.00,198.94 C115.00,199.52 115.66,200.00 116.46,200.00 C117.27,200.00 118.38,200.85 118.94,201.88 C120.72,205.22 123.09,205.27 127.11,202.03 C129.18,200.36 131.13,199.00 131.44,199.00 C131.75,199.00 132.79,198.28 133.75,197.40 C134.71,196.52 137.98,194.05 141.00,191.90 C144.02,189.75 146.95,187.64 147.50,187.21 C154.07,182.03 159.91,178.00 160.84,178.00 C161.48,178.00 162.02,177.66 162.04,177.25 C162.07,176.84 164.53,174.70 167.52,172.50 C172.56,168.78 174.45,166.00 171.93,166.00 C171.32,166.00 171.14,165.15 171.50,164.00 C171.88,162.81 171.68,162.00 171.01,162.00 C170.39,162.00 170.13,161.60 170.44,161.10 C171.05,160.10 168.77,159.00 166.07,159.00 C163.36,159.00 161.12,155.84 160.83,151.61 C160.43,145.66 161.54,145.31 180.56,145.41 C196.77,145.50 197.22,145.56 199.09,147.86 C203.97,153.89 199.62,159.00 189.60,159.00 C184.24,159.00 184.00,159.11 184.00,161.60 C184.00,163.03 184.61,165.62 185.35,167.35 C186.10,169.08 187.71,174.10 188.93,178.50 C191.79,188.79 193.66,192.68 196.07,193.31 C197.13,193.59 198.00,193.40 198.00,192.89 C198.00,192.38 199.12,192.24 200.50,192.59 C202.04,192.98 203.00,192.79 203.00,192.11 C203.00,190.67 210.67,190.65 211.56,192.10 C211.93,192.70 213.55,193.00 215.16,192.76 C216.77,192.53 218.31,192.69 218.58,193.12 C218.84,193.56 219.68,193.68 220.43,193.39 C221.18,193.10 222.10,193.35 222.47,193.95 C222.84,194.54 223.56,194.77 224.07,194.46 C224.58,194.14 225.00,194.31 225.00,194.82 C225.00,195.63 228.53,197.14 229.31,196.66 C230.38,196.01 246.00,210.29 246.00,211.92 C246.00,212.51 246.41,213.00 246.90,213.00 C247.40,213.00 248.63,215.02 249.65,217.50 C250.67,219.97 251.86,221.99 252.31,222.00 C252.75,222.00 252.84,221.55 252.50,221.00 C252.16,220.45 252.39,220.00 253.00,220.00 C253.61,220.00 253.84,219.55 253.50,219.00 C253.16,218.45 253.36,218.00 253.94,218.00 C254.52,218.00 254.92,217.66 254.83,217.25 C254.39,215.34 256.34,207.00 257.22,207.00 C257.78,207.00 257.94,205.91 257.59,204.50 C257.19,202.91 257.38,202.00 258.12,202.00 C258.92,202.00 259.10,200.46 258.69,197.00 C258.34,194.08 258.49,192.00 259.05,192.00 C261.30,192.00 259.16,161.33 256.81,159.88 C256.24,159.53 256.09,158.29 256.46,157.12 C256.88,155.81 256.70,155.00 256.00,155.00 C255.32,155.00 255.12,154.20 255.50,153.00 C255.85,151.90 255.77,151.00 255.32,151.00 C254.87,151.00 254.43,149.78 254.34,148.28 C254.26,146.78 253.72,145.41 253.15,145.22 C252.58,145.03 252.36,144.22 252.66,143.44 C252.97,142.65 252.69,142.00 252.05,142.00 C251.41,142.00 251.16,141.55 251.50,141.00 C251.84,140.45 251.61,140.00 251.00,140.00 C250.39,140.00 250.16,139.55 250.50,139.00 C250.84,138.45 250.61,138.00 250.00,138.00 C249.39,138.00 249.10,137.64 249.37,137.21 C250.10,136.03 246.28,128.00 244.99,128.00 C244.38,128.00 244.12,127.62 244.41,127.15 C244.69,126.68 244.03,125.33 242.93,124.15 C241.82,122.97 241.28,121.99 241.71,121.97 C242.14,121.95 241.44,121.05 240.14,119.97 C238.84,118.89 238.17,117.99 238.64,117.97 C239.11,117.95 238.38,117.00 237.00,115.85 C235.62,114.71 234.50,113.49 234.49,113.14 C234.47,112.05 221.19,99.00 220.10,99.00 C219.53,99.00 218.59,98.10 218.00,97.00 C217.41,95.90 216.27,95.00 215.46,95.00 C214.66,95.00 214.00,94.53 214.00,93.95 C214.00,93.37 212.31,92.20 210.25,91.34 C208.19,90.48 206.27,89.43 206.00,89.01 C205.23,87.83 197.70,84.00 196.16,84.00 C195.38,84.00 195.02,83.38 195.34,82.56 C195.64,81.77 196.40,79.24 197.02,76.93 C198.61,71.01 200.08,69.03 202.72,69.25 C203.97,69.35 205.00,69.79 205.00,70.22 C205.00,70.65 205.34,70.89 205.75,70.76 C207.01,70.36 213.00,73.18 213.00,74.18 C213.00,74.70 213.45,74.84 214.00,74.50 C214.55,74.16 215.00,74.39 215.00,75.00 C215.00,75.61 215.38,75.88 215.85,75.59 C216.32,75.31 217.65,75.95 218.81,77.03 C219.97,78.12 221.29,79.00 221.75,79.00 C222.20,79.00 226.61,82.52 231.54,86.82 C243.67,97.41 253.33,109.41 260.53,122.85 C260.32,122.49 260.10,122.15 259.89,121.82 C258.58,119.80 255.77,115.40 253.66,112.03 C251.55,108.67 245.98,101.88 241.29,96.95 C232.22,87.42 222.64,78.91 223.51,81.15 C223.80,81.89 225.56,83.54 227.42,84.81 C231.72,87.75 245.80,102.79 251.00,110.00 C255.65,116.45 263.07,130.60 262.24,131.43 C261.93,131.74 262.22,132.00 262.89,132.00 C263.57,132.00 263.86,132.42 263.54,132.93 C263.23,133.44 263.39,134.12 263.91,134.44 C265.00,135.12 268.62,145.67 270.57,153.84 C273.23,165.01 274.42,183.79 273.21,195.62 C272.02,207.40 268.17,225.23 265.45,231.60 C261.36,241.17 258.44,246.77 257.76,246.35 C257.36,246.10 257.26,246.51 257.55,247.26 C257.83,248.01 256.93,250.30 255.53,252.35 C254.14,254.41 253.00,256.31 253.00,256.59 C253.00,258.22 244.59,267.87 243.64,267.33 C243.01,266.97 242.82,267.03 243.21,267.46 C243.93,268.27 239.68,274.58 237.01,276.66 C236.19,277.30 235.11,277.57 234.61,277.26 C234.10,276.95 233.98,277.17 234.34,277.75 C235.22,279.17 225.48,287.94 216.66,293.68 C207.07,299.90 191.08,307.46 182.60,309.77 C176.38,311.47 174.90,311.52 167.60,310.37 C163.14,309.67 154.62,308.37 148.66,307.48 C142.70,306.60 136.85,305.50 135.66,305.03 C134.47,304.57 128.77,302.69 123.00,300.85 C117.22,299.01 112.35,297.16 112.17,296.75 C111.98,296.34 111.17,296.00 110.36,296.00 C109.55,296.00 109.11,295.64 109.38,295.20 C109.65,294.76 108.63,294.48 107.11,294.59 C105.35,294.71 101.72,293.17 97.15,290.39 C93.19,287.97 89.69,286.00 89.37,286.00 C89.05,286.00 87.00,284.59 84.82,282.86 C81.86,280.51 81.19,279.50 82.17,278.87 C83.15,278.25 82.97,278.02 81.50,278.00 C79.97,277.98 79.82,277.77 80.88,277.09 C81.86,276.48 80.53,275.71 76.38,274.51 C74.94,274.10 73.48,273.62 72.23,273.17 C79.86,275.62 96.00,277.75 96.00,275.87 C96.00,275.39 96.60,275.00 97.34,275.00 C100.42,275.00 111.12,268.64 113.83,265.19 C117.77,260.17 120.00,255.61 120.00,252.55 L 120.00 250.00 L 104.45 250.00 C89.96,250.00 88.67,249.85 85.61,247.75 C83.80,246.51 82.51,244.94 82.74,244.25 C82.98,243.56 82.75,243.00 82.25,243.00 C81.75,243.00 81.33,241.65 81.33,240.00 C81.33,238.35 81.71,237.00 82.17,237.00 C82.62,237.00 83.00,236.33 83.00,235.51 C83.00,234.68 84.91,232.67 87.25,231.02 C89.59,229.38 91.95,227.67 92.50,227.22 C93.05,226.78 95.07,225.31 97.00,223.96 C98.93,222.60 100.72,221.26 101.00,220.97 C101.28,220.68 103.43,218.95 105.78,217.11 C110.81,213.20 110.48,212.29 102.63,208.31 C98.11,206.02 96.75,205.82 88.56,206.20 C82.42,206.49 78.83,207.05 75.46,208.83 C76.07,208.44 76.65,208.11 77.15,207.84 ZM 137.00 297.86 C137.00,298.62 141.19,298.91 150.50,298.78 C157.97,298.68 164.00,298.19 164.00,297.67 C164.00,297.17 165.35,297.02 167.00,297.35 C168.69,297.69 170.00,297.52 170.00,296.98 C170.00,296.44 170.76,296.00 171.70,296.00 C174.75,296.00 190.46,290.85 192.23,289.27 C194.50,287.25 193.81,286.38 189.31,285.53 C185.40,284.80 178.43,281.60 177.84,280.28 C177.65,279.85 174.94,277.14 171.81,274.25 C168.68,271.36 166.43,268.99 166.81,268.97 C167.19,268.95 166.78,268.39 165.90,267.72 C165.02,267.05 164.28,266.14 164.25,265.71 C164.16,264.18 161.75,259.00 161.13,259.00 C160.78,259.00 160.43,257.78 160.34,256.28 C160.26,254.78 159.69,253.40 159.09,253.20 C158.47,252.99 158.26,251.80 158.61,250.42 C158.98,248.95 158.78,248.00 158.11,248.00 C157.40,248.00 157.00,245.46 157.00,241.00 C157.00,236.54 157.40,234.00 158.11,234.00 C158.79,234.00 158.98,233.04 158.59,231.50 C158.20,229.94 158.39,229.00 159.09,229.00 C159.71,229.00 159.96,228.34 159.65,227.53 C159.34,226.72 159.53,225.79 160.06,225.46 C160.59,225.13 160.77,224.44 160.46,223.93 C160.14,223.42 160.41,223.00 161.05,223.00 C161.69,223.00 161.95,222.32 161.64,221.50 C161.32,220.68 161.53,220.00 162.09,220.00 C162.66,220.00 162.84,219.55 162.50,219.00 C162.16,218.45 162.39,218.00 163.00,218.00 C163.61,218.00 163.87,217.60 163.56,217.10 C163.26,216.61 163.71,215.94 164.57,215.61 C165.43,215.28 165.86,214.59 165.54,214.07 C165.22,213.55 165.75,212.66 166.73,212.09 C167.70,211.52 168.07,211.05 167.54,211.03 C166.33,210.99 175.09,202.00 176.34,202.00 C177.83,202.00 182.25,196.78 181.33,196.11 C180.87,195.77 180.49,195.05 180.48,194.50 C180.42,191.44 178.77,186.00 177.90,186.00 C177.34,186.00 177.14,185.59 177.45,185.09 C178.33,183.66 175.71,183.20 173.61,184.41 C172.57,185.01 170.59,186.51 169.21,187.75 C167.83,188.99 166.08,190.00 165.32,190.00 C164.56,190.00 163.68,190.68 163.36,191.50 C163.05,192.32 162.14,193.00 161.35,193.00 C160.56,193.00 158.78,194.12 157.41,195.50 C156.03,196.88 154.53,198.00 154.06,198.00 C153.60,198.00 152.95,198.68 152.64,199.50 C152.32,200.32 151.37,201.00 150.53,201.00 C149.69,201.00 149.00,201.45 149.00,202.00 C149.00,202.55 148.31,203.00 147.47,203.00 C146.63,203.00 145.68,203.68 145.36,204.50 C145.05,205.32 144.21,206.00 143.50,206.00 C142.79,206.00 141.95,206.68 141.64,207.50 C141.32,208.32 140.42,209.00 139.64,209.00 C138.85,209.00 137.94,209.70 137.61,210.56 C137.28,211.42 136.56,211.84 136.00,211.50 C135.44,211.16 134.72,211.58 134.39,212.44 C134.06,213.30 133.12,214.00 132.31,214.00 C131.18,214.00 131.00,214.74 131.53,217.25 C131.90,219.04 132.61,220.93 133.11,221.45 C133.60,221.97 134.00,223.41 134.00,224.64 C134.00,225.87 134.51,227.20 135.13,227.58 C135.92,228.07 136.10,231.65 135.71,239.39 C135.16,250.35 132.90,260.51 129.68,266.56 C127.88,269.93 113.68,284.00 112.07,284.00 C111.48,284.00 111.00,284.42 111.00,284.93 C111.00,285.44 109.99,286.00 108.76,286.18 C105.17,286.69 105.43,289.58 109.20,291.07 C111.01,291.78 113.06,292.33 113.75,292.29 C114.44,292.25 115.00,292.65 115.00,293.17 C115.00,293.69 115.45,293.84 116.00,293.50 C116.55,293.16 117.56,293.23 118.25,293.66 C118.94,294.09 120.06,294.57 120.75,294.72 L 123.25 295.28 C123.94,295.43 125.02,295.88 125.66,296.28 C126.30,296.68 127.49,296.75 128.31,296.44 C129.13,296.12 130.09,296.33 130.44,296.90 C130.79,297.47 132.41,297.67 134.04,297.34 C135.89,296.97 137.00,297.16 137.00,297.86 ZM 197.33 274.00 C198.01,274.68 213.38,274.64 214.00,273.95 C214.27,273.65 216.55,272.63 219.06,271.69 C224.02,269.83 233.85,262.27 233.94,260.25 C233.97,259.56 234.48,259.00 235.06,259.00 C235.64,259.00 235.84,258.55 235.50,258.00 C235.16,257.45 235.29,257.00 235.78,257.00 C236.28,257.00 237.25,255.09 237.94,252.75 C238.64,250.41 239.56,248.05 239.99,247.50 C241.01,246.20 240.99,233.00 239.97,233.00 C239.54,233.00 239.42,232.10 239.71,231.00 C240.01,229.84 239.74,229.00 239.06,229.00 C238.41,229.00 238.16,228.55 238.50,228.00 C238.84,227.45 238.59,227.00 237.95,227.00 C237.31,227.00 237.05,226.32 237.36,225.50 C237.68,224.68 237.47,224.00 236.91,224.00 C236.34,224.00 236.13,223.60 236.44,223.10 C237.27,221.76 226.85,211.77 222.39,209.64 C213.98,205.61 206.57,204.20 201.25,205.63 C198.59,206.34 198.32,209.17 200.51,213.36 C201.33,214.94 202.00,216.99 202.00,217.92 C202.00,218.86 202.66,220.49 203.47,221.56 C204.28,222.63 204.95,224.32 204.97,225.32 C204.99,226.31 205.55,228.11 206.22,229.32 C211.45,238.68 210.90,244.78 204.74,245.72 C202.11,246.12 196.05,242.03 196.71,240.30 C196.99,239.59 196.73,239.00 196.14,239.00 C195.55,239.00 195.32,238.32 195.64,237.50 C195.95,236.68 195.73,236.00 195.14,236.00 C194.55,236.00 194.32,235.32 194.64,234.50 C194.95,233.68 194.69,233.00 194.05,233.00 C193.41,233.00 193.16,232.55 193.50,232.00 C193.84,231.45 193.70,231.00 193.18,231.00 C192.67,231.00 192.25,229.78 192.25,228.29 C192.25,226.80 191.77,225.42 191.18,225.23 C190.59,225.03 190.36,224.22 190.66,223.44 C190.97,222.65 190.69,222.00 190.05,222.00 C189.41,222.00 189.16,221.55 189.50,221.00 C189.84,220.45 189.66,220.00 189.09,220.00 C188.53,220.00 188.32,219.32 188.64,218.50 C188.95,217.68 188.69,217.00 188.05,217.00 C187.41,217.00 187.14,216.58 187.46,216.07 C187.77,215.56 187.57,214.85 187.00,214.50 C186.43,214.15 186.23,213.44 186.54,212.93 C186.86,212.42 186.53,212.02 185.81,212.04 C184.64,212.08 182.71,214.02 176.04,221.90 C174.92,223.22 174.00,225.11 174.00,226.09 C174.00,227.08 173.55,228.16 173.00,228.50 C171.35,229.52 171.77,250.06 173.50,253.00 C174.31,254.38 175.25,256.29 175.60,257.25 C175.95,258.21 176.63,259.00 177.12,259.00 C177.60,259.00 178.00,259.44 178.00,259.97 C178.00,261.48 188.17,271.02 189.14,270.42 C189.61,270.12 190.00,270.43 190.00,271.11 C190.00,271.78 190.28,272.05 190.63,271.70 C190.98,271.35 192.22,271.60 193.38,272.25 C194.55,272.90 195.80,273.45 196.17,273.46 C196.53,273.48 197.06,273.73 197.33,274.00 ZM 108.25 235.88 C112.84,237.21 117.48,237.19 120.45,235.84 C122.91,234.72 124.02,232.00 122.03,232.00 C121.50,232.00 121.32,231.32 121.64,230.50 C121.95,229.68 121.77,229.00 121.22,229.00 C120.67,229.00 120.28,228.23 120.36,227.29 C120.54,225.04 116.95,224.34 115.80,226.40 C115.30,227.28 114.38,228.00 113.75,228.00 C112.23,228.00 105.00,233.04 105.00,234.11 C105.00,234.57 106.46,235.37 108.25,235.88 ZM 273.96 203.26 C274.37,198.57 274.50,192.56 274.50,183.00 C274.50,177.35 274.49,173.19 274.40,169.88 C275.31,181.15 275.22,193.61 273.96,203.26 ZM 249.40 263.83 C252.48,259.60 255.37,255.28 256.95,252.39 C258.13,250.25 259.73,247.38 260.51,246.00 C262.84,241.85 266.58,232.78 267.93,228.00 C268.62,225.52 269.56,222.79 270.00,221.93 C270.03,221.86 270.06,221.78 270.10,221.68 C265.76,237.23 258.92,251.15 249.40,263.83 ZM 205.76 301.93 C205.95,301.81 206.13,301.69 206.31,301.57 C208.32,300.20 212.07,297.91 214.65,296.47 C218.13,294.53 225.68,288.56 232.18,282.81 C223.68,290.74 215.13,296.95 205.76,301.93 ZM 181.34 311.83 C175.53,313.73 174.30,314.08 174.05,313.74 C173.99,313.64 173.99,313.50 174.00,313.32 C174.00,313.27 174.00,313.22 174.00,313.16 C174.00,312.92 172.42,312.54 169.92,312.15 C173.55,312.54 176.15,312.83 176.50,312.87 C176.97,312.92 179.03,312.47 181.34,311.83 ZM 200.58 304.52 C196.94,306.23 193.16,307.78 189.20,309.19 C190.93,308.48 192.72,307.65 195.00,306.51 C196.38,305.83 198.66,305.00 200.07,304.66 C200.23,304.62 200.40,304.58 200.58,304.52 ZM 134.71 306.52 C130.78,305.52 126.86,304.35 122.83,303.01 C115.14,300.44 106.96,296.92 99.27,292.97 C107.26,297.05 115.83,300.68 124.01,303.36 C127.76,304.58 131.25,305.62 134.71,306.52 ZM 271.06 149.39 C270.10,145.95 268.99,142.48 267.81,139.16 C269.02,142.50 270.11,145.91 271.06,149.39 ZM 64.00 217.45 C64.04,217.86 66.00,216.41 68.39,214.21 C65.97,216.44 64.00,217.91 64.00,217.48 C64.00,217.47 64.00,217.46 64.00,217.45 Z" fill="rgb(16,81,111)"/>
<path d="M 134.71 306.52 C143.22,308.75 151.53,310.14 163.00,311.39 C165.49,311.66 167.87,311.92 169.92,312.15 C172.42,312.54 174.00,312.92 174.00,313.16 C174.00,313.22 174.00,313.27 174.00,313.32 C173.99,313.50 173.99,313.64 174.05,313.74 C174.08,313.78 174.13,313.81 174.19,313.83 C171.56,314.45 168.88,315.00 166.17,315.48 C156.80,317.12 135.47,317.34 125.58,315.89 C106.65,313.13 83.51,303.32 68.88,291.84 C55.93,281.69 44.66,267.22 40.23,255.09 C30.23,227.67 34.46,193.98 52.43,158.00 C61.12,140.59 67.34,131.65 85.13,111.00 C89.96,105.39 107.26,89.55 114.50,84.10 C116.70,82.44 121.43,78.82 125.00,76.04 C128.57,73.26 133.63,69.53 136.23,67.75 C138.83,65.96 140.97,64.20 140.98,63.84 C141.00,63.02 122.77,70.54 114.00,74.96 C110.43,76.77 103.68,80.72 99.00,83.75 C73.04,100.57 51.73,124.53 37.58,152.80 C31.47,165.02 27.67,176.58 24.56,192.50 C21.20,209.66 21.11,210.00 20.05,210.00 C18.95,210.00 16.48,201.79 13.75,189.00 C11.11,176.68 10.94,155.50 13.37,142.22 C17.30,120.75 26.33,100.62 39.92,83.00 C46.56,74.40 62.35,58.00 64.00,58.00 C64.49,58.00 66.16,56.82 67.70,55.38 C72.88,50.54 82.25,44.74 93.41,39.47 C120.26,26.77 144.96,21.06 173.15,21.02 L 186.81 21.00 L 187.52 31.48 C189.02,53.44 183.18,82.95 173.61,101.77 C160.25,128.05 137.42,149.67 99.00,172.43 C80.35,183.48 71.26,189.98 64.69,196.96 C51.32,211.16 46.29,228.09 50.54,244.54 C53.43,255.69 63.99,269.34 72.72,273.20 C73.18,273.40 73.76,273.61 74.42,273.81 C73.64,273.60 72.90,273.39 72.23,273.17 C70.68,272.62 69.46,272.10 69.00,271.79 C68.18,271.23 69.52,272.66 71.98,274.97 C78.27,280.88 88.22,287.35 99.27,292.97 L 99.27 292.98 C106.97,296.92 115.14,300.44 122.83,303.01 C126.86,304.35 130.78,305.52 134.71,306.52 ZM 81.15 275.27 C87.78,276.36 95.45,276.88 95.83,275.88 C95.90,275.71 96.02,275.56 96.19,275.42 C96.07,275.55 96.00,275.70 96.00,275.87 C96.00,277.16 88.39,276.56 81.15,275.27 ZM 182.50 311.49 C185.16,310.70 187.14,310.03 189.20,309.19 C192.36,308.06 195.40,306.85 198.36,305.53 C192.09,308.42 185.58,310.79 178.82,312.65 C179.55,312.41 180.38,312.14 181.34,311.83 C181.72,311.72 182.11,311.61 182.50,311.49 ZM 236.87 202.37 C233.63,199.46 230.53,196.96 229.57,196.67 C229.91,196.34 233.28,199.10 236.87,202.37 ZM 227.86 196.58 C226.58,196.21 225.00,195.36 225.00,194.82 C225.00,195.29 226.57,196.13 227.86,196.58 ZM 105.81 271.34 C109.18,269.32 112.50,266.88 113.83,265.19 C112.48,266.90 109.18,269.33 105.81,271.34 Z" fill="rgb(75,148,26)"/>
<path d="M 0.00 168.50 L 0.00 0.00 L 144.00 0.00 L 288.00 0.00 L 288.00 168.50 L 288.00 337.00 L 144.00 337.00 L 0.00 337.00 L 0.00 168.50 ZM 166.17 315.48 C193.11,310.76 216.39,298.64 236.11,279.04 C256.60,258.67 268.72,235.07 273.53,206.17 C276.13,190.54 275.20,165.22 271.50,151.04 C264.89,125.69 251.60,104.33 231.54,86.82 C226.61,82.52 222.20,79.00 221.75,79.00 C221.29,79.00 219.97,78.12 218.81,77.03 C217.65,75.95 216.32,75.31 215.85,75.59 C215.38,75.88 215.00,75.61 215.00,75.00 C215.00,74.39 214.55,74.16 214.00,74.50 C213.45,74.84 213.00,74.70 213.00,74.18 C213.00,73.18 207.01,70.36 205.75,70.76 C205.34,70.89 205.00,70.65 205.00,70.22 C205.00,69.79 203.97,69.35 202.72,69.25 C200.08,69.03 198.61,71.01 197.02,76.93 C196.40,79.24 195.64,81.77 195.34,82.56 C195.02,83.38 195.38,84.00 196.16,84.00 C197.70,84.00 205.23,87.83 206.00,89.01 C206.27,89.43 208.19,90.48 210.25,91.34 C212.31,92.20 214.00,93.37 214.00,93.95 C214.00,94.53 214.66,95.00 215.46,95.00 C216.27,95.00 217.41,95.90 218.00,97.00 C218.59,98.10 219.53,99.00 220.10,99.00 C221.19,99.00 234.47,112.05 234.49,113.14 C234.50,113.49 235.62,114.71 237.00,115.85 C238.38,117.00 239.11,117.95 238.64,117.97 C238.17,117.99 238.84,118.89 240.14,119.97 C241.44,121.05 242.14,121.95 241.71,121.97 C241.28,121.99 241.82,122.97 242.93,124.15 C244.03,125.33 244.69,126.68 244.41,127.15 C244.12,127.62 244.38,128.00 244.99,128.00 C246.28,128.00 250.10,136.03 249.37,137.21 C249.10,137.64 249.39,138.00 250.00,138.00 C250.61,138.00 250.84,138.45 250.50,139.00 C250.16,139.55 250.39,140.00 251.00,140.00 C251.61,140.00 251.84,140.45 251.50,141.00 C251.16,141.55 251.41,142.00 252.05,142.00 C252.69,142.00 252.97,142.65 252.66,143.44 C252.36,144.22 252.58,145.03 253.15,145.22 C253.72,145.41 254.26,146.78 254.34,148.28 C254.43,149.78 254.87,151.00 255.32,151.00 C255.77,151.00 255.85,151.90 255.50,153.00 C255.12,154.20 255.32,155.00 256.00,155.00 C256.70,155.00 256.88,155.81 256.46,157.12 C256.09,158.29 256.24,159.53 256.81,159.88 C259.16,161.33 261.30,192.00 259.05,192.00 C258.49,192.00 258.34,194.08 258.69,197.00 C259.10,200.46 258.92,202.00 258.12,202.00 C257.38,202.00 257.19,202.91 257.59,204.50 C257.94,205.91 257.78,207.00 257.22,207.00 C256.34,207.00 254.39,215.34 254.83,217.25 C254.92,217.66 254.52,218.00 253.94,218.00 C253.36,218.00 253.16,218.45 253.50,219.00 C253.84,219.55 253.61,220.00 253.00,220.00 C252.39,220.00 252.16,220.45 252.50,221.00 C252.84,221.55 252.75,222.00 252.31,222.00 C251.86,221.99 250.67,219.97 249.65,217.50 C248.63,215.02 247.40,213.00 246.90,213.00 C246.41,213.00 246.00,212.51 246.00,211.92 C246.00,210.41 229.78,195.43 229.54,196.72 C229.41,197.44 225.00,195.60 225.00,194.82 C225.00,194.31 224.58,194.14 224.07,194.46 C223.56,194.77 222.84,194.54 222.47,193.95 C222.10,193.35 221.18,193.10 220.43,193.39 C219.68,193.68 218.84,193.56 218.58,193.12 C218.31,192.69 216.77,192.53 215.16,192.76 C213.55,193.00 211.93,192.70 211.56,192.10 C210.67,190.65 203.00,190.67 203.00,192.11 C203.00,192.79 202.04,192.98 200.50,192.59 C199.12,192.24 198.00,192.38 198.00,192.89 C198.00,193.40 197.13,193.59 196.07,193.31 C193.66,192.68 191.79,188.79 188.93,178.50 C187.71,174.10 186.10,169.08 185.35,167.35 C184.61,165.62 184.00,163.03 184.00,161.60 C184.00,159.11 184.24,159.00 189.60,159.00 C199.62,159.00 203.97,153.89 199.09,147.86 C197.22,145.56 196.77,145.50 180.56,145.41 C161.54,145.31 160.43,145.66 160.83,151.61 C161.12,155.84 163.36,159.00 166.07,159.00 C168.77,159.00 171.05,160.10 170.44,161.10 C170.13,161.60 170.39,162.00 171.01,162.00 C171.68,162.00 171.88,162.81 171.50,164.00 C171.14,165.15 171.32,166.00 171.93,166.00 C174.45,166.00 172.56,168.78 167.52,172.50 C164.53,174.70 162.07,176.84 162.04,177.25 C162.02,177.66 161.48,178.00 160.84,178.00 C159.91,178.00 154.07,182.03 147.50,187.21 C146.95,187.64 144.02,189.75 141.00,191.90 C137.98,194.05 134.71,196.52 133.75,197.40 C132.79,198.28 131.75,199.00 131.44,199.00 C131.13,199.00 129.18,200.36 127.11,202.03 C123.09,205.27 120.72,205.22 118.94,201.88 C118.38,200.85 117.27,200.00 116.46,200.00 C115.66,200.00 115.00,199.52 115.00,198.94 C115.00,198.36 114.55,198.16 114.00,198.50 C113.45,198.84 113.00,198.64 113.00,198.06 C113.00,197.48 112.66,197.09 112.25,197.20 C111.16,197.50 104.00,194.71 104.00,193.99 C104.00,193.66 99.98,193.42 95.06,193.46 C85.21,193.54 84.21,193.99 75.19,202.46 C71.09,206.30 64.00,215.82 64.00,217.48 C64.00,217.91 65.97,216.44 68.39,214.21 C75.20,207.93 78.35,206.68 88.56,206.20 C96.75,205.82 98.11,206.02 102.63,208.31 C110.48,212.29 110.81,213.20 105.78,217.11 C103.43,218.95 101.28,220.68 101.00,220.97 C100.72,221.26 98.93,222.60 97.00,223.96 C95.07,225.31 93.05,226.78 92.50,227.22 C91.95,227.67 89.59,229.38 87.25,231.02 C84.91,232.67 83.00,234.68 83.00,235.51 C83.00,236.33 82.62,237.00 82.17,237.00 C81.71,237.00 81.33,238.35 81.33,240.00 C81.33,241.65 81.75,243.00 82.25,243.00 C82.75,243.00 82.98,243.56 82.74,244.25 C82.51,244.94 83.80,246.51 85.61,247.75 C88.67,249.85 89.96,250.00 104.45,250.00 L 120.00 250.00 L 120.00 252.55 C120.00,255.61 117.77,260.17 113.83,265.19 C111.15,268.59 100.44,275.00 97.42,275.00 C96.73,275.00 96.02,275.40 95.83,275.88 C95.25,277.42 77.63,275.37 72.72,273.20 C63.99,269.34 53.43,255.69 50.54,244.54 C46.29,228.09 51.32,211.16 64.69,196.96 C71.26,189.98 80.35,183.48 99.00,172.43 C137.42,149.67 160.25,128.05 173.61,101.77 C183.18,82.95 189.02,53.44 187.52,31.48 L 186.81 21.00 L 173.15 21.02 C144.96,21.06 120.26,26.77 93.41,39.47 C82.25,44.74 72.88,50.54 67.70,55.38 C66.16,56.82 64.49,58.00 64.00,58.00 C62.35,58.00 46.56,74.40 39.92,83.00 C26.33,100.62 17.30,120.75 13.37,142.22 C10.94,155.50 11.11,176.68 13.75,189.00 C16.48,201.79 18.95,210.00 20.05,210.00 C21.11,210.00 21.20,209.66 24.56,192.50 C27.67,176.58 31.47,165.02 37.58,152.80 C51.73,124.53 73.04,100.57 99.00,83.75 C103.68,80.72 110.43,76.77 114.00,74.96 C122.77,70.54 141.00,63.02 140.98,63.84 C140.97,64.20 138.83,65.96 136.23,67.75 C133.63,69.53 128.57,73.26 125.00,76.04 C121.43,78.82 116.70,82.44 114.50,84.10 C107.26,89.55 89.96,105.39 85.13,111.00 C67.34,131.65 61.12,140.59 52.43,158.00 C34.46,193.98 30.23,227.67 40.23,255.09 C44.66,267.22 55.93,281.69 68.88,291.84 C83.51,303.32 106.65,313.13 125.58,315.89 C135.47,317.34 156.80,317.12 166.17,315.48 ZM 137.00 297.86 C137.00,297.16 135.89,296.97 134.04,297.34 C132.41,297.67 130.79,297.47 130.44,296.90 C130.09,296.33 129.13,296.12 128.31,296.44 C127.49,296.75 126.30,296.68 125.66,296.28 C125.02,295.88 123.94,295.43 123.25,295.28 C122.56,295.13 121.44,294.87 120.75,294.72 C120.06,294.57 118.94,294.09 118.25,293.66 C117.56,293.23 116.55,293.16 116.00,293.50 C115.45,293.84 115.00,293.69 115.00,293.17 C115.00,292.65 114.44,292.25 113.75,292.29 C113.06,292.33 111.01,291.78 109.20,291.07 C105.43,289.58 105.17,286.69 108.76,286.18 C109.99,286.00 111.00,285.44 111.00,284.93 C111.00,284.42 111.48,284.00 112.07,284.00 C113.68,284.00 127.88,269.93 129.68,266.56 C132.90,260.51 135.16,250.35 135.71,239.39 C136.10,231.65 135.92,228.07 135.13,227.58 C134.51,227.20 134.00,225.87 134.00,224.64 C134.00,223.41 133.60,221.97 133.11,221.45 C132.61,220.93 131.90,219.04 131.53,217.25 C131.00,214.74 131.18,214.00 132.31,214.00 C133.12,214.00 134.06,213.30 134.39,212.44 C134.72,211.58 135.44,211.16 136.00,211.50 C136.56,211.84 137.28,211.42 137.61,210.56 C137.94,209.70 138.85,209.00 139.64,209.00 C140.42,209.00 141.32,208.32 141.64,207.50 C141.95,206.68 142.79,206.00 143.50,206.00 C144.21,206.00 145.05,205.32 145.36,204.50 C145.68,203.68 146.63,203.00 147.47,203.00 C148.31,203.00 149.00,202.55 149.00,202.00 C149.00,201.45 149.69,201.00 150.53,201.00 C151.37,201.00 152.32,200.32 152.64,199.50 C152.95,198.68 153.60,198.00 154.06,198.00 C154.53,198.00 156.03,196.88 157.41,195.50 C158.78,194.12 160.56,193.00 161.35,193.00 C162.14,193.00 163.05,192.32 163.36,191.50 C163.68,190.68 164.56,190.00 165.32,190.00 C166.08,190.00 167.83,188.99 169.21,187.75 C170.59,186.51 172.57,185.01 173.61,184.41 C175.71,183.20 178.33,183.66 177.45,185.09 C177.14,185.59 177.34,186.00 177.90,186.00 C178.77,186.00 180.42,191.44 180.48,194.50 C180.49,195.05 180.87,195.77 181.33,196.11 C182.25,196.78 177.83,202.00 176.34,202.00 C175.09,202.00 166.33,210.99 167.54,211.03 C168.07,211.05 167.70,211.52 166.73,212.09 C165.75,212.66 165.22,213.55 165.54,214.07 C165.86,214.59 165.43,215.28 164.57,215.61 C163.71,215.94 163.26,216.61 163.56,217.10 C163.87,217.60 163.61,218.00 163.00,218.00 C162.39,218.00 162.16,218.45 162.50,219.00 C162.84,219.55 162.66,220.00 162.09,220.00 C161.53,220.00 161.32,220.68 161.64,221.50 C161.95,222.32 161.69,223.00 161.05,223.00 C160.41,223.00 160.14,223.42 160.46,223.93 C160.77,224.44 160.59,225.13 160.06,225.46 C159.53,225.79 159.34,226.72 159.65,227.53 C159.96,228.34 159.71,229.00 159.09,229.00 C158.39,229.00 158.20,229.94 158.59,231.50 C158.98,233.04 158.79,234.00 158.11,234.00 C157.40,234.00 157.00,236.54 157.00,241.00 C157.00,245.46 157.40,248.00 158.11,248.00 C158.78,248.00 158.98,248.95 158.61,250.42 C158.26,251.80 158.47,252.99 159.09,253.20 C159.69,253.40 160.26,254.78 160.34,256.28 C160.43,257.78 160.78,259.00 161.13,259.00 C161.75,259.00 164.16,264.18 164.25,265.71 C164.28,266.14 165.02,267.05 165.90,267.72 C166.78,268.39 167.19,268.95 166.81,268.97 C166.43,268.99 168.68,271.36 171.81,274.25 C174.94,277.14 177.65,279.85 177.84,280.28 C178.43,281.60 185.40,284.80 189.31,285.53 C193.81,286.38 194.50,287.25 192.23,289.27 C190.46,290.85 174.75,296.00 171.70,296.00 C170.76,296.00 170.00,296.44 170.00,296.98 C170.00,297.52 168.69,297.69 167.00,297.35 C165.35,297.02 164.00,297.17 164.00,297.67 C164.00,298.19 157.97,298.68 150.50,298.78 C141.19,298.91 137.00,298.62 137.00,297.86 ZM 197.33 274.00 C197.06,273.73 196.53,273.48 196.17,273.46 C195.80,273.45 194.55,272.90 193.38,272.25 C192.22,271.60 190.98,271.35 190.63,271.70 C190.28,272.05 190.00,271.78 190.00,271.11 C190.00,270.43 189.61,270.12 189.14,270.42 C188.17,271.02 178.00,261.48 178.00,259.97 C178.00,259.44 177.60,259.00 177.12,259.00 C176.63,259.00 175.95,258.21 175.60,257.25 C175.25,256.29 174.31,254.38 173.50,253.00 C171.77,250.06 171.35,229.52 173.00,228.50 C173.55,228.16 174.00,227.08 174.00,226.09 C174.00,225.11 174.92,223.22 176.04,221.90 C182.71,214.02 184.64,212.08 185.81,212.04 C186.53,212.02 186.86,212.42 186.54,212.93 C186.23,213.44 186.43,214.15 187.00,214.50 C187.57,214.85 187.77,215.56 187.46,216.07 C187.14,216.58 187.41,217.00 188.05,217.00 C188.69,217.00 188.95,217.68 188.64,218.50 C188.32,219.32 188.53,220.00 189.09,220.00 C189.66,220.00 189.84,220.45 189.50,221.00 C189.16,221.55 189.41,222.00 190.05,222.00 C190.69,222.00 190.97,222.65 190.66,223.44 C190.36,224.22 190.59,225.03 191.18,225.23 C191.77,225.42 192.25,226.80 192.25,228.29 C192.25,229.78 192.67,231.00 193.18,231.00 C193.70,231.00 193.84,231.45 193.50,232.00 C193.16,232.55 193.41,233.00 194.05,233.00 C194.69,233.00 194.95,233.68 194.64,234.50 C194.32,235.32 194.55,236.00 195.14,236.00 C195.73,236.00 195.95,236.68 195.64,237.50 C195.32,238.32 195.55,239.00 196.14,239.00 C196.73,239.00 196.99,239.59 196.71,240.30 C196.05,242.03 202.11,246.12 204.74,245.72 C210.90,244.78 211.45,238.68 206.22,229.32 C205.55,228.11 204.99,226.31 204.97,225.32 C204.95,224.32 204.28,222.63 203.47,221.56 C202.66,220.49 202.00,218.86 202.00,217.92 C202.00,216.99 201.33,214.94 200.51,213.36 C198.32,209.17 198.59,206.34 201.25,205.63 C206.57,204.20 213.98,205.61 222.39,209.64 C226.85,211.77 237.27,221.76 236.44,223.10 C236.13,223.60 236.34,224.00 236.91,224.00 C237.47,224.00 237.68,224.68 237.36,225.50 C237.05,226.32 237.31,227.00 237.95,227.00 C238.59,227.00 238.84,227.45 238.50,228.00 C238.16,228.55 238.41,229.00 239.06,229.00 C239.74,229.00 240.01,229.84 239.71,231.00 C239.42,232.10 239.54,233.00 239.97,233.00 C240.99,233.00 241.01,246.20 239.99,247.50 C239.56,248.05 238.64,250.41 237.94,252.75 C237.25,255.09 236.28,257.00 235.78,257.00 C235.29,257.00 235.16,257.45 235.50,258.00 C235.84,258.55 235.64,259.00 235.06,259.00 C234.48,259.00 233.97,259.56 233.94,260.25 C233.85,262.27 224.02,269.83 219.06,271.69 C216.55,272.63 214.27,273.65 214.00,273.95 C213.38,274.64 198.01,274.68 197.33,274.00 ZM 108.25 235.88 C106.46,235.37 105.00,234.57 105.00,234.11 C105.00,233.04 112.23,228.00 113.75,228.00 C114.38,228.00 115.30,227.28 115.80,226.40 C116.95,224.34 120.54,225.04 120.36,227.29 C120.28,228.23 120.67,229.00 121.22,229.00 C121.77,229.00 121.95,229.68 121.64,230.50 C121.32,231.32 121.50,232.00 122.03,232.00 C124.02,232.00 122.91,234.72 120.45,235.84 C117.48,237.19 112.84,237.21 108.25,235.88 Z" fill="rgb(252,253,252)"/>
</g>
</svg>