<svg xmlns="http://www.w3.org/2000/svg" width="1024" height="1024" viewBox="0 0 1024 1024">
  <!-- Fond blanc carré avec bordures arrondies -->
  <rect x="0" y="0" width="1024" height="1024" rx="180" ry="180" fill="none"/>
  
  <!-- Bordure subtile -->
  <rect x="16" y="16" width="992" height="992" rx="164" ry="164" fill="none" stroke="rgba(0,0,0,0.05)" stroke-width="2"/>
  
  <!-- Logo centré et redimensionné -->
  <g transform="translate(150, 85) scale(2.5)">
    <!-- Premier path du vélo -->
    <path d="M 167.00 310.48 C173.25,311.58 173.75,311.79 170.00,311.77 C138.93,311.57 95.37,295.55 73.00,276.10 L 69.50 273.05 L 74.35 274.46 C78.96,275.79 81.37,277.00 79.44,277.00 C78.95,277.00 80.75,279.02 83.45,281.50 C86.14,283.98 88.71,286.00 89.16,286.00 C89.60,286.00 92.89,287.79 96.46,289.98 C100.04,292.16 104.08,294.16 105.46,294.41 C106.83,294.66 109.20,295.50 110.73,296.29 C113.89,297.92 117.90,299.41 126.50,302.14 C129.80,303.19 133.82,304.48 135.43,305.01 C137.05,305.53 143.12,306.68 148.93,307.56 C154.75,308.44 162.88,309.75 167.00,310.48 Z" fill="#0D3B4A"/>
    
    <!-- Second path du vélo (plus détaillé) -->
    <path d="M 167.00 310.48 C162.88,309.75 154.75,308.44 148.93,307.56 C143.12,306.68 137.05,305.53 135.43,305.01 C133.82,304.48 129.80,303.19 126.50,302.14 C117.90,299.41 113.89,297.92 110.73,296.29 C109.20,295.50 106.83,294.66 105.46,294.41 C104.08,294.16 100.04,292.16 96.46,289.98 C92.89,287.79 89.60,286.00 89.16,286.00 C88.71,286.00 86.14,283.98 83.45,281.50 C80.75,279.02 78.95,277.00 79.44,277.00 C81.37,277.00 78.96,275.79 74.35,274.46 L 72.66 273.97 L 76.50 275.04 C80.35,276.12 85.90,277.00 88.84,277.00 C103.99,277.00 117.16,267.43 120.83,253.75 L 121.84 250.00 L 105.17 249.99 C88.52,249.97 83.67,249.13 83.38,246.22 C83.31,245.55 83.16,244.89 83.05,244.75 C82.94,244.61 82.70,242.74 82.52,240.58 C82.23,237.23 82.64,236.27 85.34,233.88 C88.61,231.00 95.63,225.75 104.75,219.38 C112.00,214.32 111.74,212.66 102.97,208.25 C99.29,206.39 96.86,205.99 89.22,206.00 C83.24,206.00 78.66,206.53 76.35,207.50 L 76.32 207.51 C73.50,208.69 72.52,209.10 72.18,208.79 C72.00,208.63 72.00,208.27 72.00,207.71 L 72.00 207.70 C72.00,206.13 76.86,201.41 82.90,197.13 C87.02,194.20 87.85,194.00 96.09,194.00 C100.97,194.00 105.16,194.45 105.51,195.02 C105.86,195.58 106.61,195.74 107.18,195.39 C107.75,195.03 108.51,195.16 108.86,195.67 C109.21,196.19 111.21,197.40 113.29,198.37 C115.38,199.34 118.60,201.47 120.46,203.10 L 123.85 206.07 L 127.17 203.18 C129.00,201.59 133.45,198.27 137.06,195.82 C140.67,193.36 145.90,189.58 148.68,187.42 C151.46,185.27 157.87,180.61 162.93,177.08 L 172.13 170.67 L 171.87 166.08 C171.58,161.15 169.93,159.08 166.25,159.03 C160.84,158.96 158.55,151.97 162.62,147.96 C164.28,146.32 166.44,146.08 180.93,145.91 C196.87,145.73 197.41,145.79 199.18,147.97 C203.97,153.89 199.53,159.00 189.60,159.00 C184.16,159.00 184.00,159.08 184.01,161.75 C184.01,163.26 184.64,165.70 185.41,167.17 C186.17,168.64 187.31,172.21 187.93,175.10 C188.55,178.00 189.44,180.84 189.90,181.43 C190.36,182.02 191.06,184.29 191.46,186.48 C192.55,192.54 193.57,193.88 196.74,193.43 C211.77,191.26 220.21,192.32 230.41,197.63 C235.36,200.21 246.00,209.97 246.00,211.93 C246.00,212.52 246.41,213.00 246.90,213.00 C247.40,213.00 248.63,215.02 249.65,217.50 C250.67,219.97 251.77,221.99 252.10,222.00 C253.39,222.00 256.03,214.06 257.58,205.50 C258.63,199.73 259.18,191.47 259.13,182.50 C259.01,164.00 258.99,163.70 257.77,162.23 C257.19,161.53 256.97,160.70 257.27,160.39 C257.58,160.09 257.18,158.28 256.38,156.37 C255.59,154.47 255.18,152.51 255.48,152.03 C255.79,151.54 255.59,150.87 255.06,150.54 C254.53,150.21 254.34,149.28 254.65,148.47 C254.96,147.66 254.67,147.00 254.00,147.00 C253.33,147.00 253.04,146.33 253.36,145.50 C253.68,144.68 253.47,144.00 252.91,144.00 C252.34,144.00 252.14,143.58 252.46,143.07 C252.77,142.56 252.57,141.85 252.00,141.50 C251.43,141.15 251.23,140.44 251.54,139.93 C251.86,139.42 251.61,139.00 251.00,139.00 C250.39,139.00 250.16,138.55 250.50,138.00 C250.84,137.45 250.61,137.00 250.00,137.00 C249.39,137.00 249.16,136.55 249.50,136.00 C249.84,135.45 249.61,135.00 249.00,135.00 C248.39,135.00 248.16,134.55 248.50,134.00 C248.84,133.45 248.61,133.00 248.00,133.00 C247.39,133.00 247.16,132.55 247.50,132.00 C247.84,131.45 247.61,131.00 247.00,131.00 C246.39,131.00 246.13,130.60 246.44,130.10 C246.74,129.61 246.29,128.94 245.43,128.61 C244.57,128.28 244.15,127.56 244.50,127.01 C244.84,126.45 244.61,126.00 244.00,126.00 C243.39,126.00 243.16,125.55 243.50,124.99 C243.85,124.44 243.43,123.72 242.57,123.39 C241.71,123.06 241.26,122.38 241.57,121.89 C241.88,121.39 241.43,120.72 240.57,120.39 C239.71,120.06 239.24,119.42 239.52,118.96 C239.80,118.51 239.01,117.42 237.77,116.55 C236.52,115.68 235.49,114.63 235.48,114.23 C235.46,113.13 221.10,99.00 220.01,99.00 C219.50,99.00 218.59,98.10 218.00,97.00 C217.41,95.90 216.27,95.00 215.46,95.00 C214.66,95.00 214.00,94.54 214.00,93.98 C214.00,93.42 212.76,92.41 211.25,91.75 C209.74,91.08 208.27,90.25 208.00,89.90 C207.73,89.55 205.17,88.09 202.32,86.65 C199.47,85.21 196.91,83.66 196.62,83.19 C195.71,81.72 200.01,69.00 201.42,69.00 C205.20,69.00 221.04,77.96 228.98,84.59 C233.40,88.28 242.78,97.73 245.84,101.56 C247.13,103.18 249.49,106.04 251.09,107.93 C252.69,109.82 254.00,111.75 254.00,112.22 C254.00,112.70 254.79,113.94 255.75,114.99 C257.38,116.77 261.49,124.57 264.44,131.50 C267.05,137.62 267.84,139.55 268.52,141.50 C270.22,146.34 273.01,160.84 274.09,170.49 C276.67,193.40 270.53,227.84 260.98,244.04 C259.34,246.82 258.00,249.74 258.00,250.54 C258.00,251.34 257.58,252.00 257.07,252.00 C256.56,252.00 255.35,253.80 254.38,256.00 C253.41,258.20 252.25,260.00 251.81,260.00 C251.36,260.00 251.00,260.67 251.00,261.50 C251.00,262.33 250.55,263.00 250.00,263.00 C249.45,263.00 249.00,263.49 249.00,264.10 C249.00,264.70 247.76,266.42 246.25,267.92 C244.74,269.41 240.04,274.32 235.82,278.82 C231.59,283.32 227.67,287.00 227.10,287.00 C226.53,287.00 225.59,287.90 225.00,289.00 C224.41,290.10 223.27,291.00 222.46,291.00 C221.66,291.00 221.00,291.47 221.00,292.05 C221.00,292.63 219.65,293.57 218.00,294.15 C216.35,294.73 215.00,295.60 215.00,296.10 C215.00,296.59 214.32,297.00 213.50,297.00 C212.68,297.00 212.00,297.45 212.00,298.00 C212.00,298.55 211.36,299.00 210.58,299.00 C208.80,299.00 203.01,302.24 203.01,303.25 C203.00,303.66 202.10,304.00 201.00,304.00 C199.90,304.00 199.00,304.44 199.00,304.98 C199.00,305.52 197.76,306.23 196.25,306.56 C194.74,306.89 192.60,307.52 191.50,307.96 C190.40,308.41 187.48,309.35 185.00,310.07 C182.52,310.78 180.05,311.67 179.50,312.04 C177.73,313.25 173.00,314.07 173.00,313.17 C173.00,312.81 170.13,312.21 166.03,311.66 C167.37,311.72 168.70,311.76 170.00,311.77 C173.75,311.79 173.25,311.58 167.00,310.48 ZM 134.34 297.92 C139.93,298.96 146.52,299.85 149.00,299.90 C160.28,300.12 187.84,293.93 192.25,290.18 C195.42,287.48 194.95,286.98 187.41,285.05 C185.16,284.48 182.28,283.11 181.00,282.00 C179.73,280.90 178.39,280.00 178.02,280.00 C176.94,280.00 166.25,269.09 166.79,268.54 C167.06,268.27 166.55,267.76 165.65,267.42 C164.75,267.07 164.26,266.39 164.56,265.90 C164.87,265.40 164.61,265.00 164.00,265.00 C163.39,265.00 163.16,264.55 163.50,264.00 C163.84,263.45 163.61,263.00 163.00,263.00 C162.39,263.00 162.16,262.55 162.50,262.00 C162.84,261.45 162.69,261.00 162.17,261.00 C161.28,261.00 160.62,259.22 159.17,253.00 C158.85,251.62 158.62,246.00 158.65,240.50 C158.76,224.76 163.93,213.23 174.89,204.32 C179.83,200.31 183.31,195.00 181.01,195.00 C180.56,195.00 180.42,194.10 180.71,193.00 C181.01,191.84 180.74,191.00 180.06,191.00 C179.41,191.00 179.16,190.55 179.50,190.00 C179.84,189.45 179.68,189.00 179.15,189.00 C178.62,189.00 178.38,188.21 178.61,187.25 C178.84,186.29 178.60,184.85 178.08,184.05 C177.25,182.77 176.78,182.77 174.32,184.04 C172.77,184.84 171.14,186.06 170.70,186.75 C170.26,187.44 169.25,188.00 168.45,188.00 C167.65,188.00 167.00,188.45 167.00,189.00 C167.00,189.55 166.32,190.00 165.50,190.00 C164.68,190.00 164.00,190.44 164.00,190.99 C164.00,191.53 162.42,192.63 160.49,193.44 C158.55,194.25 156.71,195.61 156.38,196.45 C156.05,197.30 155.21,198.00 154.50,198.00 C153.79,198.00 152.95,198.68 152.64,199.50 C152.32,200.32 151.37,201.00 150.53,201.00 C149.69,201.00 149.00,201.45 149.00,202.00 C149.00,202.55 148.31,203.00 147.47,203.00 C146.63,203.00 145.68,203.68 145.36,204.50 C145.05,205.32 144.16,206.00 143.39,206.00 C142.63,206.00 142.00,206.43 142.00,206.95 C142.00,207.48 140.38,208.67 138.41,209.61 C136.43,210.55 134.58,211.92 134.30,212.66 C134.02,213.40 133.16,214.00 132.39,214.00 C130.61,214.00 130.59,217.95 132.36,220.53 C133.10,221.61 134.29,225.59 134.99,229.37 C137.06,240.50 134.95,256.31 130.11,265.78 C127.86,270.20 114.35,284.00 112.28,284.00 C111.58,284.00 111.00,284.45 111.00,285.00 C111.00,285.55 110.13,286.00 109.06,286.00 C107.99,286.00 106.84,286.45 106.50,287.01 C105.87,288.03 107.73,290.31 109.52,290.72 C110.06,290.85 113.58,292.09 117.34,293.49 C121.10,294.89 128.75,296.88 134.34,297.92 ZM 194.13 272.72 C200.96,275.54 209.67,275.66 218.14,273.04 C226.12,270.57 232.69,264.42 237.27,255.10 C240.08,249.40 240.51,247.45 240.61,240.24 C240.66,235.68 240.35,231.71 239.90,231.44 C239.45,231.16 239.34,230.28 239.65,229.47 C239.96,228.66 239.69,228.00 239.05,228.00 C238.41,228.00 238.16,227.55 238.50,227.00 C238.84,226.45 238.61,226.00 238.00,226.00 C237.39,226.00 237.16,225.55 237.50,225.00 C237.84,224.45 237.61,224.00 237.00,224.00 C236.39,224.00 236.14,223.58 236.46,223.06 C236.78,222.55 236.25,221.66 235.27,221.09 C234.30,220.52 233.85,220.05 234.27,220.03 C235.28,219.99 225.88,211.00 224.82,211.00 C224.37,211.00 224.00,210.66 224.00,210.24 C224.00,208.18 207.38,204.95 201.25,205.82 C198.57,206.20 198.28,209.10 200.51,213.36 C201.33,214.94 202.00,216.99 202.00,217.92 C202.00,218.86 202.66,220.49 203.47,221.56 C204.28,222.63 204.95,224.11 204.97,224.85 C204.99,225.59 205.61,227.62 206.36,229.35 C210.66,239.32 210.92,241.22 208.36,243.78 C207.46,244.68 205.85,245.55 204.78,245.72 C202.49,246.06 196.88,243.01 197.61,241.82 C197.89,241.37 197.66,241.00 197.09,241.00 C196.53,241.00 196.32,240.32 196.64,239.50 C196.95,238.68 196.73,238.00 196.14,238.00 C195.55,238.00 195.32,237.32 195.64,236.50 C195.96,235.65 195.66,235.00 194.94,235.00 C194.24,235.00 193.95,234.72 194.30,234.37 C194.65,234.02 194.27,232.80 193.46,231.65 C192.66,230.50 192.00,228.31 192.00,226.78 C192.00,225.25 191.56,224.00 191.03,224.00 C190.50,224.00 190.32,223.32 190.64,222.50 C190.95,221.68 190.69,221.00 190.05,221.00 C189.41,221.00 189.14,220.58 189.46,220.07 C189.77,219.56 189.57,218.85 189.00,218.50 C188.43,218.15 188.23,217.44 188.54,216.93 C188.86,216.42 188.61,216.00 188.00,216.00 C187.39,216.00 187.16,215.55 187.50,215.00 C187.84,214.45 187.61,214.00 187.00,214.00 C186.39,214.00 186.16,213.55 186.50,213.00 C186.84,212.45 186.69,212.00 186.18,212.00 C184.76,212.00 177.18,219.87 176.48,222.07 C176.14,223.13 175.45,224.00 174.93,224.00 C174.42,224.00 174.00,224.87 174.00,225.94 C174.00,227.01 173.55,228.16 173.00,228.50 C171.78,229.25 171.71,246.06 172.91,251.21 C173.38,253.24 174.47,255.61 175.32,256.46 C176.17,257.31 177.15,258.80 177.49,259.76 C178.52,262.66 188.40,270.36 194.13,272.72 ZM 106.42 235.70 C107.20,236.14 111.05,236.35 114.98,236.17 C122.43,235.82 124.47,234.48 122.03,231.53 C121.37,230.74 121.12,229.62 121.47,229.04 C121.83,228.47 121.61,228.00 121.00,228.00 C120.39,228.00 120.16,227.55 120.50,226.99 C121.56,225.28 118.03,224.67 116.21,226.25 C115.27,227.07 114.05,227.92 113.50,228.14 C110.95,229.14 105.00,233.29 105.00,234.05 C105.00,234.52 105.64,235.26 106.42,235.70 ZM 98.22 292.48 C111.16,299.03 125.89,304.40 140.20,307.80 C127.45,305.02 115.50,300.84 103.09,294.93 C101.51,294.18 99.88,293.36 98.22,292.48 ZM 69.55 273.10 L 73.00 276.10 C73.38,276.43 73.77,276.76 74.16,277.09 C73.75,276.75 73.37,276.43 73.00,276.11 L 69.50 273.08 Z" fill="#0F516F"/>
    
    <!-- Path de la feuille verte -->
    <path d="M 69.55 273.10 L 69.50 273.08 L 73.00 276.11 C73.37,276.43 73.75,276.75 74.16,277.09 C80.76,282.61 89.04,287.84 98.22,292.48 C99.88,293.36 101.51,294.18 103.09,294.93 C115.50,300.84 127.45,305.02 140.20,307.80 C149.15,309.93 157.94,311.28 166.03,311.66 C170.13,312.21 173.00,312.81 173.00,313.17 C173.00,313.61 174.18,313.64 175.57,313.40 C172.48,314.24 168.02,315.21 163.57,315.98 C156.59,317.18 134.05,317.13 125.58,315.89 C117.03,314.65 105.96,311.44 96.12,307.37 C86.39,303.34 74.00,296.39 74.00,294.96 C74.00,294.43 73.40,294.00 72.67,294.00 C71.94,294.00 68.14,291.19 64.23,287.75 C43.61,269.62 35.72,251.91 35.63,223.50 C35.55,201.01 43.69,174.17 58.33,148.62 C70.81,126.84 94.60,100.67 118.42,82.50 C122.75,79.20 129.20,73.91 132.75,70.75 C136.30,67.59 139.61,65.00 140.10,65.00 C140.60,65.00 141.00,64.60 141.00,64.11 C141.00,63.12 123.93,69.99 114.00,74.98 C81.87,91.13 53.58,120.20 36.98,154.14 C30.75,166.87 27.61,176.76 24.12,194.61 C22.64,202.17 20.92,208.53 20.30,208.73 C18.84,209.22 16.65,201.58 13.93,186.50 C10.26,166.15 12.32,142.84 19.64,122.00 C29.22,94.69 48.94,69.25 74.02,51.83 C84.78,44.36 87.21,43.05 102.50,36.51 C125.30,26.75 144.20,22.62 171.65,21.39 L 186.79 20.71 L 187.51 30.35 C188.90,48.80 185.38,71.38 177.94,91.77 C173.11,105.00 162.60,121.11 150.54,133.79 C137.49,147.50 123.90,157.61 96.45,174.02 C77.67,185.25 71.27,189.89 64.35,197.29 C51.30,211.26 46.33,228.27 50.54,244.54 C52.51,252.16 56.78,259.19 64.06,266.81 C68.99,271.98 70.82,273.17 76.52,274.93 C85.76,277.79 94.88,277.34 102.49,274.26 C98.31,276.03 93.68,277.00 88.84,277.00 C85.90,277.00 80.35,276.12 76.50,275.04 L 72.66 273.97 L 69.50 273.05 Z" fill="#4B9419"/>
  </g>
  
  <!-- Ajout d'une ombre CSS simple si souhaitée -->
  <style>
    .logo-shadow {
      filter: drop-shadow(0 4px 8px rgba(0,0,0,0.1));
    }
  </style>
</svg>